<?xml version="1.0" encoding="UTF-8"?>
<svg version="1.1" xmlns="http://www.w3.org/2000/svg" width="600" height="600">
<path d="M0 0 C1.11761719 0.350625 2.23523438 0.70125 3.38671875 1.0625 C18.25082493 6.22638731 30.05336445 14.90818361 41 26 C41.9075 26.8971875 42.815 27.794375 43.75 28.71875 C50.2268635 35.43257192 54.85827877 42.71882821 59 51 C59.556875 52.11246094 60.11375 53.22492187 60.6875 54.37109375 C67.11205344 68.26419056 69.09182961 81.96237208 70 97.125 C70.62711993 107.57861744 71.65347995 117.04879681 75 127 C75.20608887 127.62084473 75.41217773 128.24168945 75.62451172 128.88134766 C80.51983874 143.2744146 88.42035785 155.0848095 99 166 C99.5259375 166.59941406 100.051875 167.19882813 100.59375 167.81640625 C117.7421191 186.67086309 144.53852227 193.80730867 169.08740234 195.11083984 C169.75336426 195.14000488 170.41932617 195.16916992 171.10546875 195.19921875 C198.4609829 196.41441928 221.79416008 206.53944072 241 226 C241.9075 226.8971875 242.815 227.794375 243.75 228.71875 C250.2268635 235.43257192 254.85827877 242.71882821 259 251 C259.556875 252.11246094 260.11375 253.22492188 260.6875 254.37109375 C271.94947085 278.72510571 272.32520872 306.85517832 263.375 332 C258.11689743 345.72532883 250.27131258 356.6184126 240 367 C239.11054687 367.98033203 239.11054687 367.98033203 238.203125 368.98046875 C223.08294059 385.33571773 198.57654181 395.31744816 176.6328125 396.39453125 C157.0063335 397.41218658 157.0063335 397.41218658 138 402 C137.38060547 402.20608887 136.76121094 402.41217773 136.12304688 402.62451172 C121.72743798 407.51945808 109.91708112 415.41852535 99 426 C98.40058594 426.5259375 97.80117188 427.051875 97.18359375 427.59375 C80.12887903 443.10523067 71.78204127 467.57519076 70 490 C69.89298546 492.34614514 69.82329037 494.69109634 69.76074219 497.03881836 C68.9505321 524.26457813 59.12198016 547.67272251 40 567 C39.40703125 567.65355469 38.8140625 568.30710937 38.203125 568.98046875 C24.17175671 584.15796366 0.56275969 594.95742236 -19.98168945 596.17700195 C-34.50284302 596.46115332 -48.13607502 596.64542789 -62 592 C-62.95471191 591.68651611 -62.95471191 591.68651611 -63.92871094 591.36669922 C-89.14420186 582.88743464 -110.0004223 563.8871554 -121.91113281 540.18701172 C-123.91597535 535.88712165 -125.52242147 531.49995004 -127 527 C-127.41378906 525.76507812 -127.82757813 524.53015625 -128.25390625 523.2578125 C-133.32931548 506.28998096 -133.54200114 484.85692013 -128 468 C-127.80664062 467.38334473 -127.61328125 466.76668945 -127.4140625 466.13134766 C-122.62239475 451.08713772 -115.15155763 438.23936517 -104 427 C-103.175 426.13375 -102.35 425.2675 -101.5 424.375 C-100.2625 423.199375 -100.2625 423.199375 -99 422 C-98.41476563 421.41992188 -97.82953125 420.83984375 -97.2265625 420.2421875 C-78.9897985 402.95454877 -55.24497867 396.18893659 -30.625 395.0625 C-19.92632569 394.44008857 -10.18394259 393.39860861 0 390 C1.09441406 389.65195312 2.18882812 389.30390625 3.31640625 388.9453125 C18.21389578 383.74642927 30.02018048 375.13594919 41 364 C41.74894531 363.26136719 42.49789062 362.52273438 43.26953125 361.76171875 C59.8730122 344.3722742 68.2628515 318.72933817 68 295 C67.10712477 270.47533725 58.979772 247.09567175 42 229 C41.30519531 228.2265625 40.61039063 227.453125 39.89453125 226.65625 C20.59920249 206.1308001 -5.71267018 198.00956094 -33.09375 196.8046875 C-60.82151572 195.54929653 -86.24880074 184.8284468 -105.4296875 164.4140625 C-114.99078611 153.13262781 -122.38069425 141.06804759 -127 127 C-127.41378906 125.76507813 -127.82757813 124.53015625 -128.25390625 123.2578125 C-133.32931548 106.28998096 -133.54200114 84.85692013 -128 68 C-127.80664062 67.38334473 -127.61328125 66.76668945 -127.4140625 66.13134766 C-122.62239475 51.08713772 -115.15155763 38.23936517 -104 27 C-103.175 26.13375 -102.35 25.2675 -101.5 24.375 C-100.675 23.59125 -99.85 22.8075 -99 22 C-98.41476563 21.41992188 -97.82953125 20.83984375 -97.2265625 20.2421875 C-86.31353321 9.89712256 -73.23161874 3.46248824 -59 -1 C-57.96488281 -1.3403125 -56.92976563 -1.680625 -55.86328125 -2.03125 C-38.20969761 -6.81565912 -17.29189549 -5.69527219 0 0 Z " fill="#AA0000" transform="translate(331,4)"/>
<path d="M0 0 C1.11761719 0.350625 2.23523438 0.70125 3.38671875 1.0625 C17.80000041 6.06976793 29.25909339 14.38620472 40 25 C40.72703125 25.65484375 41.4540625 26.3096875 42.203125 26.984375 C57.38886774 40.97438996 67.95601946 64.41360789 69.17700195 84.98168945 C69.46115332 99.50284302 69.64542789 113.13607502 65 127 C64.68651611 127.95471191 64.68651611 127.95471191 64.36669922 128.92871094 C59.52780871 143.31852016 51.55270916 155.13311211 41 166 C40.31550781 166.75796875 39.63101563 167.5159375 38.92578125 168.296875 C24.40210298 183.86754672 1.32430665 194.91221466 -19.98168945 196.17700195 C-34.52135194 196.4615155 -48.10324949 196.57704459 -62 192 C-63.11761719 191.649375 -64.23523438 191.29875 -65.38671875 190.9375 C-79.20896824 186.13556049 -90.69498591 178.27100414 -101 168 C-102.28777344 166.71996094 -102.28777344 166.71996094 -103.6015625 165.4140625 C-104.39304687 164.61742187 -105.18453125 163.82078125 -106 163 C-106.84304687 162.15308594 -106.84304687 162.15308594 -107.703125 161.2890625 C-127.07047014 140.45449425 -132.15788537 113.47080695 -131.1640625 85.95019531 C-129.84459151 62.22327953 -118.3792853 41.57544441 -102 25 C-101.34515625 24.27296875 -100.6903125 23.5459375 -100.015625 22.796875 C-75.89906175 -3.38093297 -32.83385252 -10.81418328 0 0 Z " fill="#AA0000" transform="translate(131,204)"/>
<path d="M0 0 C4 1 4 1 4 1 Z " fill="#AA0000" transform="translate(275,599)"/>
<path d="M0 0 C1 4 1 4 1 4 Z " fill="#AA0000" transform="translate(200,521)"/>
<path d="M0 0 C1 4 1 4 1 4 Z " fill="#AA0000" transform="translate(400,516)"/>
<path d="M0 0 C1 4 1 4 1 4 Z " fill="#AA0000" transform="translate(199,516)"/>
<path d="M0 0 C1 4 1 4 1 4 Z " fill="#AA0000" transform="translate(403,481)"/>
<path d="M0 0 C1 4 1 4 1 4 Z " fill="#AA0000" transform="translate(199,479)"/>
<path d="M0 0 C1 4 1 4 1 4 Z " fill="#AA0000" transform="translate(404,476)"/>
<path d="M0 0 C4 1 4 1 4 1 Z " fill="#AA0000" transform="translate(516,400)"/>
<path d="M0 0 C4 1 4 1 4 1 Z " fill="#AA0000" transform="translate(275,400)"/>
<path d="M0 0 C4 1 4 1 4 1 Z " fill="#AA0000" transform="translate(116,400)"/>
<path d="M0 0 C4 1 4 1 4 1 Z " fill="#AA0000" transform="translate(80,400)"/>
<path d="M0 0 C4 1 4 1 4 1 Z " fill="#AA0000" transform="translate(280,399)"/>
<path d="M0 0 C4 1 4 1 4 1 Z " fill="#AA0000" transform="translate(121,399)"/>
<path d="M0 0 C4 1 4 1 4 1 Z " fill="#AA0000" transform="translate(75,399)"/>
<path d="M0 0 C4 1 4 1 4 1 Z " fill="#AA0000" transform="translate(314,396)"/>
<path d="M0 0 C1 4 1 4 1 4 Z " fill="#AA0000" transform="translate(396,314)"/>
<path d="M0 0 C1 4 1 4 1 4 Z " fill="#AA0000" transform="translate(200,316)"/>
<path d="M0 0 C1 4 1 4 1 4 Z " fill="#AA0000" transform="translate(200,280)"/>
<path d="M0 0 C1 4 1 4 1 4 Z " fill="#AA0000" transform="translate(395,277)"/>
<path d="M0 0 C4 1 4 1 4 1 Z " fill="#AA0000" transform="translate(280,200)"/>
<path d="M0 0 C4 1 4 1 4 1 Z " fill="#AA0000" transform="translate(121,200)"/>
<path d="M0 0 C4 1 4 1 4 1 Z " fill="#AA0000" transform="translate(75,200)"/>
<path d="M0 0 C4 1 4 1 4 1 Z " fill="#AA0000" transform="translate(516,199)"/>
<path d="M0 0 C4 1 4 1 4 1 Z " fill="#AA0000" transform="translate(275,199)"/>
<path d="M0 0 C4 1 4 1 4 1 Z " fill="#AA0000" transform="translate(116,199)"/>
<path d="M0 0 C4 1 4 1 4 1 Z " fill="#AA0000" transform="translate(80,199)"/>
<path d="M0 0 C1 4 1 4 1 4 Z " fill="#AA0000" transform="translate(200,121)"/>
<path d="M0 0 C1 4 1 4 1 4 Z " fill="#AA0000" transform="translate(403,114)"/>
<path d="M0 0 C1 4 1 4 1 4 Z " fill="#AA0000" transform="translate(199,116)"/>
<path d="M0 0 C1 4 1 4 1 4 Z " fill="#AA0000" transform="translate(400,81)"/>
<path d="M0 0 C1 4 1 4 1 4 Z " fill="#AA0000" transform="translate(199,79)"/>
<path d="M0 0 C4 1 4 1 4 1 Z " fill="#AA0000" transform="translate(275,0)"/>
<path d="M0 0 C3 1 3 1 3 1 Z " fill="#AA0000" transform="translate(321,599)"/>
<path d="M0 0 C3 1 3 1 3 1 Z " fill="#AA0000" transform="translate(325,598)"/>
<path d="" fill="#AA0000" transform="translate(0,0)"/>
<path d="" fill="#AA0000" transform="translate(0,0)"/>
<path d="" fill="#AA0000" transform="translate(0,0)"/>
<path d="" fill="#AA0000" transform="translate(0,0)"/>
<path d="" fill="#AA0000" transform="translate(0,0)"/>
<path d="" fill="#AA0000" transform="translate(0,0)"/>
<path d="M0 0 C3 1 3 1 3 1 Z " fill="#AA0000" transform="translate(473,405)"/>
<path d="M0 0 C3 1 3 1 3 1 Z " fill="#AA0000" transform="translate(477,404)"/>
<path d="M0 0 C3 1 3 1 3 1 Z " fill="#AA0000" transform="translate(521,399)"/>
<path d="M0 0 C3 1 3 1 3 1 Z " fill="#AA0000" transform="translate(525,398)"/>
<path d="M0 0 C3 1 3 1 3 1 Z " fill="#AA0000" transform="translate(320,395)"/>
<path d="M0 0 C3 1 3 1 3 1 Z " fill="#AA0000" transform="translate(324,394)"/>
<path d="" fill="#AA0000" transform="translate(0,0)"/>
<path d="" fill="#AA0000" transform="translate(0,0)"/>
<path d="" fill="#AA0000" transform="translate(0,0)"/>
<path d="" fill="#AA0000" transform="translate(0,0)"/>
<path d="" fill="#AA0000" transform="translate(0,0)"/>
<path d="" fill="#AA0000" transform="translate(0,0)"/>
<path d="" fill="#AA0000" transform="translate(0,0)"/>
<path d="" fill="#AA0000" transform="translate(0,0)"/>
<path d="" fill="#AA0000" transform="translate(0,0)"/>
<path d="" fill="#AA0000" transform="translate(0,0)"/>
<path d="" fill="#AA0000" transform="translate(0,0)"/>
<path d="" fill="#AA0000" transform="translate(0,0)"/>
<path d="" fill="#AA0000" transform="translate(0,0)"/>
<path d="" fill="#AA0000" transform="translate(0,0)"/>
<path d="" fill="#AA0000" transform="translate(0,0)"/>
<path d="M0 0 C3 1 3 1 3 1 Z " fill="#AA0000" transform="translate(324,205)"/>
<path d="M0 0 C3 1 3 1 3 1 Z " fill="#AA0000" transform="translate(320,204)"/>
<path d="M0 0 C3 1 3 1 3 1 Z " fill="#AA0000" transform="translate(525,201)"/>
<path d="M0 0 C3 1 3 1 3 1 Z " fill="#AA0000" transform="translate(521,200)"/>
<path d="M0 0 C3 1 3 1 3 1 Z " fill="#AA0000" transform="translate(477,195)"/>
<path d="" fill="#AA0000" transform="translate(0,0)"/>
<path d="" fill="#AA0000" transform="translate(0,0)"/>
<path d="" fill="#AA0000" transform="translate(0,0)"/>
<path d="" fill="#AA0000" transform="translate(0,0)"/>
<path d="" fill="#AA0000" transform="translate(0,0)"/>
<path d="" fill="#AA0000" transform="translate(0,0)"/>
<path d="M0 0 C3 1 3 1 3 1 Z " fill="#AA0000" transform="translate(325,1)"/>
<path d="M0 0 C3 1 3 1 3 1 Z " fill="#AA0000" transform="translate(321,0)"/>
<path d="M0 0 C2 1 2 1 2 1 Z " fill="#AA0000" transform="translate(272,598)"/>
<path d="M0 0 C2 1 2 1 2 1 Z " fill="#AA0000" transform="translate(329,597)"/>
<path d="M0 0 C2 1 2 1 2 1 Z " fill="#AA0000" transform="translate(269,597)"/>
<path d="M0 0 C2 1 2 1 2 1 Z " fill="#AA0000" transform="translate(332,596)"/>
<path d="M0 0 C2 1 2 1 2 1 Z " fill="#AA0000" transform="translate(266,596)"/>
<path d="M0 0 C2 1 2 1 2 1 Z " fill="#AA0000" transform="translate(335,595)"/>
<path d="M0 0 C2 1 2 1 2 1 Z " fill="#AA0000" transform="translate(263,595)"/>
<path d="M0 0 C2 1 2 1 2 1 Z " fill="#AA0000" transform="translate(337,594)"/>
<path d="M0 0 C2 1 2 1 2 1 Z " fill="#AA0000" transform="translate(258,593)"/>
<path d="M0 0 C2 1 2 1 2 1 Z " fill="#AA0000" transform="translate(342,592)"/>
<path d="M0 0 C2 1 2 1 2 1 Z " fill="#AA0000" transform="translate(256,592)"/>
<path d="M0 0 C2 1 2 1 2 1 Z " fill="#AA0000" transform="translate(344,591)"/>
<path d="M0 0 C2 1 2 1 2 1 Z " fill="#AA0000" transform="translate(254,591)"/>
<path d="M0 0 C2 1 2 1 2 1 Z " fill="#AA0000" transform="translate(252,590)"/>
<path d="" fill="#AA0000" transform="translate(0,0)"/>
<path d="" fill="#AA0000" transform="translate(0,0)"/>
<path d="" fill="#AA0000" transform="translate(0,0)"/>
<path d="" fill="#AA0000" transform="translate(0,0)"/>
<path d="" fill="#AA0000" transform="translate(0,0)"/>
<path d="" fill="#AA0000" transform="translate(0,0)"/>
<path d="" fill="#AA0000" transform="translate(0,0)"/>
<path d="" fill="#AA0000" transform="translate(0,0)"/>
<path d="" fill="#AA0000" transform="translate(0,0)"/>
<path d="" fill="#AA0000" transform="translate(0,0)"/>
<path d="" fill="#AA0000" transform="translate(0,0)"/>
<path d="" fill="#AA0000" transform="translate(0,0)"/>
<path d="" fill="#AA0000" transform="translate(0,0)"/>
<path d="" fill="#AA0000" transform="translate(0,0)"/>
<path d="" fill="#AA0000" transform="translate(0,0)"/>
<path d="" fill="#AA0000" transform="translate(0,0)"/>
<path d="" fill="#AA0000" transform="translate(0,0)"/>
<path d="" fill="#AA0000" transform="translate(0,0)"/>
<path d="" fill="#AA0000" transform="translate(0,0)"/>
<path d="" fill="#AA0000" transform="translate(0,0)"/>
<path d="" fill="#AA0000" transform="translate(0,0)"/>
<path d="" fill="#AA0000" transform="translate(0,0)"/>
<path d="" fill="#AA0000" transform="translate(0,0)"/>
<path d="" fill="#AA0000" transform="translate(0,0)"/>
<path d="" fill="#AA0000" transform="translate(0,0)"/>
<path d="" fill="#AA0000" transform="translate(0,0)"/>
<path d="" fill="#AA0000" transform="translate(0,0)"/>
<path d="" fill="#AA0000" transform="translate(0,0)"/>
<path d="" fill="#AA0000" transform="translate(0,0)"/>
<path d="" fill="#AA0000" transform="translate(0,0)"/>
<path d="" fill="#AA0000" transform="translate(0,0)"/>
<path d="" fill="#AA0000" transform="translate(0,0)"/>
<path d="" fill="#AA0000" transform="translate(0,0)"/>
<path d="M0 0 C2 1 2 1 2 1 Z " fill="#AA0000" transform="translate(446,417)"/>
<path d="M0 0 C2 1 2 1 2 1 Z " fill="#AA0000" transform="translate(451,414)"/>
<path d="M0 0 C2 1 2 1 2 1 Z " fill="#AA0000" transform="translate(453,413)"/>
<path d="M0 0 C2 1 2 1 2 1 Z " fill="#AA0000" transform="translate(455,412)"/>
<path d="M0 0 C2 1 2 1 2 1 Z " fill="#AA0000" transform="translate(457,411)"/>
<path d="M0 0 C2 1 2 1 2 1 Z " fill="#AA0000" transform="translate(459,410)"/>
<path d="M0 0 C2 1 2 1 2 1 Z " fill="#AA0000" transform="translate(461,409)"/>
<path d="M0 0 C2 1 2 1 2 1 Z " fill="#AA0000" transform="translate(252,409)"/>
<path d="M0 0 C2 1 2 1 2 1 Z " fill="#AA0000" transform="translate(464,408)"/>
<path d="M0 0 C2 1 2 1 2 1 Z " fill="#AA0000" transform="translate(254,408)"/>
<path d="M0 0 C2 1 2 1 2 1 Z " fill="#AA0000" transform="translate(467,407)"/>
<path d="M0 0 C2 1 2 1 2 1 Z " fill="#AA0000" transform="translate(256,407)"/>
<path d="M0 0 C2 1 2 1 2 1 Z " fill="#AA0000" transform="translate(470,406)"/>
<path d="M0 0 C2 1 2 1 2 1 Z " fill="#AA0000" transform="translate(258,406)"/>
<path d="M0 0 C2 1 2 1 2 1 Z " fill="#AA0000" transform="translate(261,405)"/>
<path d="M0 0 C2 1 2 1 2 1 Z " fill="#AA0000" transform="translate(263,404)"/>
<path d="M0 0 C2 1 2 1 2 1 Z " fill="#AA0000" transform="translate(266,403)"/>
<path d="M0 0 C2 1 2 1 2 1 Z " fill="#AA0000" transform="translate(269,402)"/>
<path d="M0 0 C2 1 2 1 2 1 Z " fill="#AA0000" transform="translate(272,401)"/>
<path d="M0 0 C2 1 2 1 2 1 Z " fill="#AA0000" transform="translate(126,398)"/>
<path d="M0 0 C2 1 2 1 2 1 Z " fill="#AA0000" transform="translate(72,398)"/>
<path d="M0 0 C2 1 2 1 2 1 Z " fill="#AA0000" transform="translate(529,397)"/>
<path d="M0 0 C2 1 2 1 2 1 Z " fill="#AA0000" transform="translate(129,397)"/>
<path d="M0 0 C2 1 2 1 2 1 Z " fill="#AA0000" transform="translate(69,397)"/>
<path d="M0 0 C2 1 2 1 2 1 Z " fill="#AA0000" transform="translate(532,396)"/>
<path d="M0 0 C2 1 2 1 2 1 Z " fill="#AA0000" transform="translate(132,396)"/>
<path d="M0 0 C2 1 2 1 2 1 Z " fill="#AA0000" transform="translate(66,396)"/>
<path d="M0 0 C2 1 2 1 2 1 Z " fill="#AA0000" transform="translate(535,395)"/>
<path d="M0 0 C2 1 2 1 2 1 Z " fill="#AA0000" transform="translate(135,395)"/>
<path d="M0 0 C2 1 2 1 2 1 Z " fill="#AA0000" transform="translate(63,395)"/>
<path d="M0 0 C2 1 2 1 2 1 Z " fill="#AA0000" transform="translate(537,394)"/>
<path d="M0 0 C2 1 2 1 2 1 Z " fill="#AA0000" transform="translate(137,394)"/>
<path d="M0 0 C2 1 2 1 2 1 Z " fill="#AA0000" transform="translate(61,394)"/>
<path d="M0 0 C2 1 2 1 2 1 Z " fill="#AA0000" transform="translate(328,393)"/>
<path d="M0 0 C2 1 2 1 2 1 Z " fill="#AA0000" transform="translate(140,393)"/>
<path d="M0 0 C2 1 2 1 2 1 Z " fill="#AA0000" transform="translate(58,393)"/>
<path d="M0 0 C2 1 2 1 2 1 Z " fill="#AA0000" transform="translate(542,392)"/>
<path d="M0 0 C2 1 2 1 2 1 Z " fill="#AA0000" transform="translate(331,392)"/>
<path d="M0 0 C2 1 2 1 2 1 Z " fill="#AA0000" transform="translate(142,392)"/>
<path d="M0 0 C2 1 2 1 2 1 Z " fill="#AA0000" transform="translate(56,392)"/>
<path d="M0 0 C2 1 2 1 2 1 Z " fill="#AA0000" transform="translate(544,391)"/>
<path d="M0 0 C2 1 2 1 2 1 Z " fill="#AA0000" transform="translate(334,391)"/>
<path d="M0 0 C2 1 2 1 2 1 Z " fill="#AA0000" transform="translate(144,391)"/>
<path d="M0 0 C2 1 2 1 2 1 Z " fill="#AA0000" transform="translate(54,391)"/>
<path d="M0 0 C2 1 2 1 2 1 Z " fill="#AA0000" transform="translate(336,390)"/>
<path d="M0 0 C2 1 2 1 2 1 Z " fill="#AA0000" transform="translate(146,390)"/>
<path d="M0 0 C2 1 2 1 2 1 Z " fill="#AA0000" transform="translate(52,390)"/>
<path d="M0 0 C2 1 2 1 2 1 Z " fill="#AA0000" transform="translate(339,389)"/>
<path d="M0 0 C2 1 2 1 2 1 Z " fill="#AA0000" transform="translate(341,388)"/>
<path d="M0 0 C2 1 2 1 2 1 Z " fill="#AA0000" transform="translate(343,387)"/>
<path d="M0 0 C2 1 2 1 2 1 Z " fill="#AA0000" transform="translate(345,386)"/>
<path d="M0 0 C2 1 2 1 2 1 Z " fill="#AA0000" transform="translate(352,382)"/>
<path d="M0 0 C2 1 2 1 2 1 Z " fill="#AA0000" transform="translate(355,380)"/>
<path d="" fill="#AA0000" transform="translate(0,0)"/>
<path d="" fill="#AA0000" transform="translate(0,0)"/>
<path d="" fill="#AA0000" transform="translate(0,0)"/>
<path d="" fill="#AA0000" transform="translate(0,0)"/>
<path d="" fill="#AA0000" transform="translate(0,0)"/>
<path d="" fill="#AA0000" transform="translate(0,0)"/>
<path d="" fill="#AA0000" transform="translate(0,0)"/>
<path d="" fill="#AA0000" transform="translate(0,0)"/>
<path d="" fill="#AA0000" transform="translate(0,0)"/>
<path d="" fill="#AA0000" transform="translate(0,0)"/>
<path d="" fill="#AA0000" transform="translate(0,0)"/>
<path d="" fill="#AA0000" transform="translate(0,0)"/>
<path d="" fill="#AA0000" transform="translate(0,0)"/>
<path d="" fill="#AA0000" transform="translate(0,0)"/>
<path d="" fill="#AA0000" transform="translate(0,0)"/>
<path d="" fill="#AA0000" transform="translate(0,0)"/>
<path d="" fill="#AA0000" transform="translate(0,0)"/>
<path d="" fill="#AA0000" transform="translate(0,0)"/>
<path d="" fill="#AA0000" transform="translate(0,0)"/>
<path d="" fill="#AA0000" transform="translate(0,0)"/>
<path d="" fill="#AA0000" transform="translate(0,0)"/>
<path d="" fill="#AA0000" transform="translate(0,0)"/>
<path d="" fill="#AA0000" transform="translate(0,0)"/>
<path d="" fill="#AA0000" transform="translate(0,0)"/>
<path d="" fill="#AA0000" transform="translate(0,0)"/>
<path d="" fill="#AA0000" transform="translate(0,0)"/>
<path d="" fill="#AA0000" transform="translate(0,0)"/>
<path d="" fill="#AA0000" transform="translate(0,0)"/>
<path d="" fill="#AA0000" transform="translate(0,0)"/>
<path d="" fill="#AA0000" transform="translate(0,0)"/>
<path d="" fill="#AA0000" transform="translate(0,0)"/>
<path d="" fill="#AA0000" transform="translate(0,0)"/>
<path d="" fill="#AA0000" transform="translate(0,0)"/>
<path d="" fill="#AA0000" transform="translate(0,0)"/>
<path d="" fill="#AA0000" transform="translate(0,0)"/>
<path d="" fill="#AA0000" transform="translate(0,0)"/>
<path d="" fill="#AA0000" transform="translate(0,0)"/>
<path d="" fill="#AA0000" transform="translate(0,0)"/>
<path d="" fill="#AA0000" transform="translate(0,0)"/>
<path d="" fill="#AA0000" transform="translate(0,0)"/>
<path d="" fill="#AA0000" transform="translate(0,0)"/>
<path d="" fill="#AA0000" transform="translate(0,0)"/>
<path d="" fill="#AA0000" transform="translate(0,0)"/>
<path d="" fill="#AA0000" transform="translate(0,0)"/>
<path d="" fill="#AA0000" transform="translate(0,0)"/>
<path d="" fill="#AA0000" transform="translate(0,0)"/>
<path d="" fill="#AA0000" transform="translate(0,0)"/>
<path d="" fill="#AA0000" transform="translate(0,0)"/>
<path d="" fill="#AA0000" transform="translate(0,0)"/>
<path d="" fill="#AA0000" transform="translate(0,0)"/>
<path d="" fill="#AA0000" transform="translate(0,0)"/>
<path d="" fill="#AA0000" transform="translate(0,0)"/>
<path d="" fill="#AA0000" transform="translate(0,0)"/>
<path d="" fill="#AA0000" transform="translate(0,0)"/>
<path d="" fill="#AA0000" transform="translate(0,0)"/>
<path d="" fill="#AA0000" transform="translate(0,0)"/>
<path d="" fill="#AA0000" transform="translate(0,0)"/>
<path d="" fill="#AA0000" transform="translate(0,0)"/>
<path d="" fill="#AA0000" transform="translate(0,0)"/>
<path d="" fill="#AA0000" transform="translate(0,0)"/>
<path d="" fill="#AA0000" transform="translate(0,0)"/>
<path d="" fill="#AA0000" transform="translate(0,0)"/>
<path d="" fill="#AA0000" transform="translate(0,0)"/>
<path d="" fill="#AA0000" transform="translate(0,0)"/>
<path d="M0 0 C2 1 2 1 2 1 Z " fill="#AA0000" transform="translate(355,219)"/>
<path d="M0 0 C2 1 2 1 2 1 Z " fill="#AA0000" transform="translate(352,217)"/>
<path d="M0 0 C2 1 2 1 2 1 Z " fill="#AA0000" transform="translate(347,214)"/>
<path d="M0 0 C2 1 2 1 2 1 Z " fill="#AA0000" transform="translate(345,213)"/>
<path d="M0 0 C2 1 2 1 2 1 Z " fill="#AA0000" transform="translate(343,212)"/>
<path d="M0 0 C2 1 2 1 2 1 Z " fill="#AA0000" transform="translate(341,211)"/>
<path d="M0 0 C2 1 2 1 2 1 Z " fill="#AA0000" transform="translate(339,210)"/>
<path d="M0 0 C2 1 2 1 2 1 Z " fill="#AA0000" transform="translate(546,209)"/>
<path d="M0 0 C2 1 2 1 2 1 Z " fill="#AA0000" transform="translate(146,209)"/>
<path d="M0 0 C2 1 2 1 2 1 Z " fill="#AA0000" transform="translate(52,209)"/>
<path d="M0 0 C2 1 2 1 2 1 Z " fill="#AA0000" transform="translate(544,208)"/>
<path d="M0 0 C2 1 2 1 2 1 Z " fill="#AA0000" transform="translate(334,208)"/>
<path d="M0 0 C2 1 2 1 2 1 Z " fill="#AA0000" transform="translate(144,208)"/>
<path d="M0 0 C2 1 2 1 2 1 Z " fill="#AA0000" transform="translate(54,208)"/>
<path d="M0 0 C2 1 2 1 2 1 Z " fill="#AA0000" transform="translate(542,207)"/>
<path d="M0 0 C2 1 2 1 2 1 Z " fill="#AA0000" transform="translate(331,207)"/>
<path d="M0 0 C2 1 2 1 2 1 Z " fill="#AA0000" transform="translate(142,207)"/>
<path d="M0 0 C2 1 2 1 2 1 Z " fill="#AA0000" transform="translate(56,207)"/>
<path d="M0 0 C2 1 2 1 2 1 Z " fill="#AA0000" transform="translate(328,206)"/>
<path d="M0 0 C2 1 2 1 2 1 Z " fill="#AA0000" transform="translate(140,206)"/>
<path d="M0 0 C2 1 2 1 2 1 Z " fill="#AA0000" transform="translate(58,206)"/>
<path d="M0 0 C2 1 2 1 2 1 Z " fill="#AA0000" transform="translate(537,205)"/>
<path d="M0 0 C2 1 2 1 2 1 Z " fill="#AA0000" transform="translate(137,205)"/>
<path d="M0 0 C2 1 2 1 2 1 Z " fill="#AA0000" transform="translate(61,205)"/>
<path d="M0 0 C2 1 2 1 2 1 Z " fill="#AA0000" transform="translate(535,204)"/>
<path d="M0 0 C2 1 2 1 2 1 Z " fill="#AA0000" transform="translate(135,204)"/>
<path d="M0 0 C2 1 2 1 2 1 Z " fill="#AA0000" transform="translate(63,204)"/>
<path d="M0 0 C2 1 2 1 2 1 Z " fill="#AA0000" transform="translate(532,203)"/>
<path d="M0 0 C2 1 2 1 2 1 Z " fill="#AA0000" transform="translate(132,203)"/>
<path d="M0 0 C2 1 2 1 2 1 Z " fill="#AA0000" transform="translate(66,203)"/>
<path d="M0 0 C2 1 2 1 2 1 Z " fill="#AA0000" transform="translate(529,202)"/>
<path d="M0 0 C2 1 2 1 2 1 Z " fill="#AA0000" transform="translate(129,202)"/>
<path d="M0 0 C2 1 2 1 2 1 Z " fill="#AA0000" transform="translate(69,202)"/>
<path d="M0 0 C2 1 2 1 2 1 Z " fill="#AA0000" transform="translate(126,201)"/>
<path d="M0 0 C2 1 2 1 2 1 Z " fill="#AA0000" transform="translate(72,201)"/>
<path d="M0 0 C2 1 2 1 2 1 Z " fill="#AA0000" transform="translate(272,198)"/>
<path d="M0 0 C2 1 2 1 2 1 Z " fill="#AA0000" transform="translate(269,197)"/>
<path d="M0 0 C2 1 2 1 2 1 Z " fill="#AA0000" transform="translate(266,196)"/>
<path d="M0 0 C2 1 2 1 2 1 Z " fill="#AA0000" transform="translate(263,195)"/>
<path d="M0 0 C2 1 2 1 2 1 Z " fill="#AA0000" transform="translate(473,194)"/>
<path d="M0 0 C2 1 2 1 2 1 Z " fill="#AA0000" transform="translate(470,193)"/>
<path d="M0 0 C2 1 2 1 2 1 Z " fill="#AA0000" transform="translate(258,193)"/>
<path d="M0 0 C2 1 2 1 2 1 Z " fill="#AA0000" transform="translate(467,192)"/>
<path d="M0 0 C2 1 2 1 2 1 Z " fill="#AA0000" transform="translate(256,192)"/>
<path d="M0 0 C2 1 2 1 2 1 Z " fill="#AA0000" transform="translate(464,191)"/>
<path d="M0 0 C2 1 2 1 2 1 Z " fill="#AA0000" transform="translate(254,191)"/>
<path d="M0 0 C2 1 2 1 2 1 Z " fill="#AA0000" transform="translate(461,190)"/>
<path d="M0 0 C2 1 2 1 2 1 Z " fill="#AA0000" transform="translate(252,190)"/>
<path d="M0 0 C2 1 2 1 2 1 Z " fill="#AA0000" transform="translate(459,189)"/>
<path d="M0 0 C2 1 2 1 2 1 Z " fill="#AA0000" transform="translate(457,188)"/>
<path d="M0 0 C2 1 2 1 2 1 Z " fill="#AA0000" transform="translate(453,186)"/>
<path d="M0 0 C2 1 2 1 2 1 Z " fill="#AA0000" transform="translate(451,185)"/>
<path d="" fill="#AA0000" transform="translate(0,0)"/>
<path d="" fill="#AA0000" transform="translate(0,0)"/>
<path d="" fill="#AA0000" transform="translate(0,0)"/>
<path d="" fill="#AA0000" transform="translate(0,0)"/>
<path d="" fill="#AA0000" transform="translate(0,0)"/>
<path d="" fill="#AA0000" transform="translate(0,0)"/>
<path d="" fill="#AA0000" transform="translate(0,0)"/>
<path d="" fill="#AA0000" transform="translate(0,0)"/>
<path d="" fill="#AA0000" transform="translate(0,0)"/>
<path d="" fill="#AA0000" transform="translate(0,0)"/>
<path d="" fill="#AA0000" transform="translate(0,0)"/>
<path d="" fill="#AA0000" transform="translate(0,0)"/>
<path d="" fill="#AA0000" transform="translate(0,0)"/>
<path d="" fill="#AA0000" transform="translate(0,0)"/>
<path d="" fill="#AA0000" transform="translate(0,0)"/>
<path d="" fill="#AA0000" transform="translate(0,0)"/>
<path d="" fill="#AA0000" transform="translate(0,0)"/>
<path d="" fill="#AA0000" transform="translate(0,0)"/>
<path d="" fill="#AA0000" transform="translate(0,0)"/>
<path d="" fill="#AA0000" transform="translate(0,0)"/>
<path d="" fill="#AA0000" transform="translate(0,0)"/>
<path d="" fill="#AA0000" transform="translate(0,0)"/>
<path d="" fill="#AA0000" transform="translate(0,0)"/>
<path d="" fill="#AA0000" transform="translate(0,0)"/>
<path d="" fill="#AA0000" transform="translate(0,0)"/>
<path d="" fill="#AA0000" transform="translate(0,0)"/>
<path d="" fill="#AA0000" transform="translate(0,0)"/>
<path d="" fill="#AA0000" transform="translate(0,0)"/>
<path d="" fill="#AA0000" transform="translate(0,0)"/>
<path d="" fill="#AA0000" transform="translate(0,0)"/>
<path d="" fill="#AA0000" transform="translate(0,0)"/>
<path d="" fill="#AA0000" transform="translate(0,0)"/>
<path d="M0 0 C2 1 2 1 2 1 Z " fill="#AA0000" transform="translate(346,9)"/>
<path d="M0 0 C2 1 2 1 2 1 Z " fill="#AA0000" transform="translate(252,9)"/>
<path d="M0 0 C2 1 2 1 2 1 Z " fill="#AA0000" transform="translate(344,8)"/>
<path d="M0 0 C2 1 2 1 2 1 Z " fill="#AA0000" transform="translate(254,8)"/>
<path d="M0 0 C2 1 2 1 2 1 Z " fill="#AA0000" transform="translate(342,7)"/>
<path d="M0 0 C2 1 2 1 2 1 Z " fill="#AA0000" transform="translate(256,7)"/>
<path d="M0 0 C2 1 2 1 2 1 Z " fill="#AA0000" transform="translate(258,6)"/>
<path d="M0 0 C2 1 2 1 2 1 Z " fill="#AA0000" transform="translate(337,5)"/>
<path d="M0 0 C2 1 2 1 2 1 Z " fill="#AA0000" transform="translate(261,5)"/>
<path d="M0 0 C2 1 2 1 2 1 Z " fill="#AA0000" transform="translate(335,4)"/>
<path d="M0 0 C2 1 2 1 2 1 Z " fill="#AA0000" transform="translate(263,4)"/>
<path d="M0 0 C2 1 2 1 2 1 Z " fill="#AA0000" transform="translate(332,3)"/>
<path d="M0 0 C2 1 2 1 2 1 Z " fill="#AA0000" transform="translate(266,3)"/>
<path d="M0 0 C2 1 2 1 2 1 Z " fill="#AA0000" transform="translate(329,2)"/>
<path d="M0 0 C2 1 2 1 2 1 Z " fill="#AA0000" transform="translate(269,2)"/>
<path d="M0 0 C2 1 2 1 2 1 Z " fill="#AA0000" transform="translate(272,1)"/>
<path d="" fill="#AA0000" transform="translate(0,0)"/>
<path d="" fill="#AA0000" transform="translate(0,0)"/>
<path d="" fill="#AA0000" transform="translate(0,0)"/>
<path d="" fill="#AA0000" transform="translate(0,0)"/>
<path d="" fill="#AA0000" transform="translate(0,0)"/>
<path d="" fill="#AA0000" transform="translate(0,0)"/>
<path d="" fill="#AA0000" transform="translate(0,0)"/>
<path d="" fill="#AA0000" transform="translate(0,0)"/>
<path d="" fill="#AA0000" transform="translate(0,0)"/>
<path d="" fill="#AA0000" transform="translate(0,0)"/>
<path d="" fill="#AA0000" transform="translate(0,0)"/>
<path d="" fill="#AA0000" transform="translate(0,0)"/>
<path d="" fill="#AA0000" transform="translate(0,0)"/>
<path d="" fill="#AA0000" transform="translate(0,0)"/>
<path d="" fill="#AA0000" transform="translate(0,0)"/>
<path d="" fill="#AA0000" transform="translate(0,0)"/>
<path d="" fill="#AA0000" transform="translate(0,0)"/>
<path d="" fill="#AA0000" transform="translate(0,0)"/>
<path d="" fill="#AA0000" transform="translate(0,0)"/>
<path d="" fill="#AA0000" transform="translate(0,0)"/>
<path d="" fill="#AA0000" transform="translate(0,0)"/>
<path d="" fill="#AA0000" transform="translate(0,0)"/>
<path d="" fill="#AA0000" transform="translate(0,0)"/>
<path d="" fill="#AA0000" transform="translate(0,0)"/>
<path d="" fill="#AA0000" transform="translate(0,0)"/>
<path d="" fill="#AA0000" transform="translate(0,0)"/>
<path d="" fill="#AA0000" transform="translate(0,0)"/>
<path d="" fill="#AA0000" transform="translate(0,0)"/>
<path d="" fill="#AA0000" transform="translate(0,0)"/>
<path d="" fill="#AA0000" transform="translate(0,0)"/>
<path d="" fill="#AA0000" transform="translate(0,0)"/>
<path d="" fill="#AA0000" transform="translate(0,0)"/>
<path d="" fill="#AA0000" transform="translate(0,0)"/>
<path d="" fill="#AA0000" transform="translate(0,0)"/>
<path d="" fill="#AA0000" transform="translate(0,0)"/>
<path d="" fill="#AA0000" transform="translate(0,0)"/>
<path d="" fill="#AA0000" transform="translate(0,0)"/>
<path d="" fill="#AA0000" transform="translate(0,0)"/>
<path d="" fill="#AA0000" transform="translate(0,0)"/>
<path d="" fill="#AA0000" transform="translate(0,0)"/>
<path d="" fill="#AA0000" transform="translate(0,0)"/>
<path d="" fill="#AA0000" transform="translate(0,0)"/>
<path d="" fill="#AA0000" transform="translate(0,0)"/>
<path d="" fill="#AA0000" transform="translate(0,0)"/>
<path d="" fill="#AA0000" transform="translate(0,0)"/>
<path d="" fill="#AA0000" transform="translate(0,0)"/>
<path d="" fill="#AA0000" transform="translate(0,0)"/>
<path d="" fill="#AA0000" transform="translate(0,0)"/>
<path d="" fill="#AA0000" transform="translate(0,0)"/>
<path d="" fill="#AA0000" transform="translate(0,0)"/>
<path d="" fill="#AA0000" transform="translate(0,0)"/>
<path d="" fill="#AA0000" transform="translate(0,0)"/>
<path d="" fill="#AA0000" transform="translate(0,0)"/>
<path d="" fill="#AA0000" transform="translate(0,0)"/>
<path d="" fill="#AA0000" transform="translate(0,0)"/>
<path d="" fill="#AA0000" transform="translate(0,0)"/>
<path d="" fill="#AA0000" transform="translate(0,0)"/>
<path d="" fill="#AA0000" transform="translate(0,0)"/>
<path d="" fill="#AA0000" transform="translate(0,0)"/>
<path d="" fill="#AA0000" transform="translate(0,0)"/>
<path d="" fill="#AA0000" transform="translate(0,0)"/>
<path d="" fill="#AA0000" transform="translate(0,0)"/>
<path d="" fill="#AA0000" transform="translate(0,0)"/>
<path d="" fill="#AA0000" transform="translate(0,0)"/>
<path d="" fill="#AA0000" transform="translate(0,0)"/>
<path d="" fill="#AA0000" transform="translate(0,0)"/>
<path d="" fill="#AA0000" transform="translate(0,0)"/>
<path d="" fill="#AA0000" transform="translate(0,0)"/>
<path d="" fill="#AA0000" transform="translate(0,0)"/>
<path d="" fill="#AA0000" transform="translate(0,0)"/>
<path d="" fill="#AA0000" transform="translate(0,0)"/>
<path d="" fill="#AA0000" transform="translate(0,0)"/>
<path d="" fill="#AA0000" transform="translate(0,0)"/>
<path d="" fill="#AA0000" transform="translate(0,0)"/>
<path d="" fill="#AA0000" transform="translate(0,0)"/>
<path d="" fill="#AA0000" transform="translate(0,0)"/>
<path d="" fill="#AA0000" transform="translate(0,0)"/>
<path d="" fill="#AA0000" transform="translate(0,0)"/>
<path d="" fill="#AA0000" transform="translate(0,0)"/>
<path d="" fill="#AA0000" transform="translate(0,0)"/>
<path d="" fill="#AA0000" transform="translate(0,0)"/>
<path d="" fill="#AA0000" transform="translate(0,0)"/>
<path d="" fill="#AA0000" transform="translate(0,0)"/>
<path d="" fill="#AA0000" transform="translate(0,0)"/>
<path d="" fill="#AA0000" transform="translate(0,0)"/>
<path d="" fill="#AA0000" transform="translate(0,0)"/>
<path d="" fill="#AA0000" transform="translate(0,0)"/>
<path d="" fill="#AA0000" transform="translate(0,0)"/>
<path d="" fill="#AA0000" transform="translate(0,0)"/>
<path d="" fill="#AA0000" transform="translate(0,0)"/>
<path d="" fill="#AA0000" transform="translate(0,0)"/>
<path d="" fill="#AA0000" transform="translate(0,0)"/>
<path d="" fill="#AA0000" transform="translate(0,0)"/>
<path d="" fill="#AA0000" transform="translate(0,0)"/>
<path d="" fill="#AA0000" transform="translate(0,0)"/>
<path d="" fill="#AA0000" transform="translate(0,0)"/>
<path d="" fill="#AA0000" transform="translate(0,0)"/>
<path d="" fill="#AA0000" transform="translate(0,0)"/>
<path d="" fill="#AA0000" transform="translate(0,0)"/>
<path d="" fill="#AA0000" transform="translate(0,0)"/>
<path d="" fill="#AA0000" transform="translate(0,0)"/>
<path d="" fill="#AA0000" transform="translate(0,0)"/>
<path d="" fill="#AA0000" transform="translate(0,0)"/>
<path d="" fill="#AA0000" transform="translate(0,0)"/>
<path d="" fill="#AA0000" transform="translate(0,0)"/>
<path d="" fill="#AA0000" transform="translate(0,0)"/>
<path d="" fill="#AA0000" transform="translate(0,0)"/>
<path d="" fill="#AA0000" transform="translate(0,0)"/>
<path d="" fill="#AA0000" transform="translate(0,0)"/>
<path d="" fill="#AA0000" transform="translate(0,0)"/>
<path d="" fill="#AA0000" transform="translate(0,0)"/>
<path d="" fill="#AA0000" transform="translate(0,0)"/>
<path d="" fill="#AA0000" transform="translate(0,0)"/>
<path d="" fill="#AA0000" transform="translate(0,0)"/>
<path d="" fill="#AA0000" transform="translate(0,0)"/>
<path d="" fill="#AA0000" transform="translate(0,0)"/>
<path d="" fill="#AA0000" transform="translate(0,0)"/>
<path d="" fill="#AA0000" transform="translate(0,0)"/>
<path d="" fill="#AA0000" transform="translate(0,0)"/>
<path d="" fill="#AA0000" transform="translate(0,0)"/>
<path d="" fill="#AA0000" transform="translate(0,0)"/>
<path d="" fill="#AA0000" transform="translate(0,0)"/>
<path d="" fill="#AA0000" transform="translate(0,0)"/>
<path d="" fill="#AA0000" transform="translate(0,0)"/>
<path d="" fill="#AA0000" transform="translate(0,0)"/>
<path d="" fill="#AA0000" transform="translate(0,0)"/>
<path d="" fill="#AA0000" transform="translate(0,0)"/>
<path d="" fill="#AA0000" transform="translate(0,0)"/>
<path d="" fill="#AA0000" transform="translate(0,0)"/>
<path d="" fill="#AA0000" transform="translate(0,0)"/>
<path d="" fill="#AA0000" transform="translate(0,0)"/>
<path d="" fill="#AA0000" transform="translate(0,0)"/>
<path d="" fill="#AA0000" transform="translate(0,0)"/>
<path d="" fill="#AA0000" transform="translate(0,0)"/>
<path d="" fill="#AA0000" transform="translate(0,0)"/>
<path d="" fill="#AA0000" transform="translate(0,0)"/>
<path d="" fill="#AA0000" transform="translate(0,0)"/>
<path d="" fill="#AA0000" transform="translate(0,0)"/>
<path d="" fill="#AA0000" transform="translate(0,0)"/>
<path d="" fill="#AA0000" transform="translate(0,0)"/>
<path d="" fill="#AA0000" transform="translate(0,0)"/>
<path d="" fill="#AA0000" transform="translate(0,0)"/>
<path d="" fill="#AA0000" transform="translate(0,0)"/>
<path d="" fill="#AA0000" transform="translate(0,0)"/>
<path d="" fill="#AA0000" transform="translate(0,0)"/>
<path d="" fill="#AA0000" transform="translate(0,0)"/>
<path d="" fill="#AA0000" transform="translate(0,0)"/>
<path d="" fill="#AA0000" transform="translate(0,0)"/>
<path d="" fill="#AA0000" transform="translate(0,0)"/>
<path d="" fill="#AA0000" transform="translate(0,0)"/>
<path d="" fill="#AA0000" transform="translate(0,0)"/>
<path d="" fill="#AA0000" transform="translate(0,0)"/>
<path d="" fill="#AA0000" transform="translate(0,0)"/>
<path d="" fill="#AA0000" transform="translate(0,0)"/>
<path d="" fill="#AA0000" transform="translate(0,0)"/>
<path d="" fill="#AA0000" transform="translate(0,0)"/>
<path d="" fill="#AA0000" transform="translate(0,0)"/>
<path d="" fill="#AA0000" transform="translate(0,0)"/>
<path d="" fill="#AA0000" transform="translate(0,0)"/>
<path d="" fill="#AA0000" transform="translate(0,0)"/>
<path d="" fill="#AA0000" transform="translate(0,0)"/>
<path d="" fill="#AA0000" transform="translate(0,0)"/>
<path d="" fill="#AA0000" transform="translate(0,0)"/>
<path d="" fill="#AA0000" transform="translate(0,0)"/>
<path d="" fill="#AA0000" transform="translate(0,0)"/>
<path d="" fill="#AA0000" transform="translate(0,0)"/>
<path d="" fill="#AA0000" transform="translate(0,0)"/>
<path d="" fill="#AA0000" transform="translate(0,0)"/>
<path d="" fill="#AA0000" transform="translate(0,0)"/>
<path d="" fill="#AA0000" transform="translate(0,0)"/>
<path d="" fill="#AA0000" transform="translate(0,0)"/>
<path d="" fill="#AA0000" transform="translate(0,0)"/>
<path d="" fill="#AA0000" transform="translate(0,0)"/>
<path d="" fill="#AA0000" transform="translate(0,0)"/>
<path d="" fill="#AA0000" transform="translate(0,0)"/>
<path d="" fill="#AA0000" transform="translate(0,0)"/>
<path d="" fill="#AA0000" transform="translate(0,0)"/>
<path d="" fill="#AA0000" transform="translate(0,0)"/>
<path d="" fill="#AA0000" transform="translate(0,0)"/>
<path d="" fill="#AA0000" transform="translate(0,0)"/>
<path d="" fill="#AA0000" transform="translate(0,0)"/>
<path d="" fill="#AA0000" transform="translate(0,0)"/>
<path d="" fill="#AA0000" transform="translate(0,0)"/>
<path d="" fill="#AA0000" transform="translate(0,0)"/>
<path d="" fill="#AA0000" transform="translate(0,0)"/>
<path d="" fill="#AA0000" transform="translate(0,0)"/>
<path d="" fill="#AA0000" transform="translate(0,0)"/>
<path d="" fill="#AA0000" transform="translate(0,0)"/>
<path d="" fill="#AA0000" transform="translate(0,0)"/>
<path d="" fill="#AA0000" transform="translate(0,0)"/>
<path d="" fill="#AA0000" transform="translate(0,0)"/>
<path d="" fill="#AA0000" transform="translate(0,0)"/>
<path d="" fill="#AA0000" transform="translate(0,0)"/>
<path d="" fill="#AA0000" transform="translate(0,0)"/>
<path d="" fill="#AA0000" transform="translate(0,0)"/>
<path d="" fill="#AA0000" transform="translate(0,0)"/>
<path d="" fill="#AA0000" transform="translate(0,0)"/>
<path d="" fill="#AA0000" transform="translate(0,0)"/>
<path d="" fill="#AA0000" transform="translate(0,0)"/>
<path d="" fill="#AA0000" transform="translate(0,0)"/>
<path d="" fill="#AA0000" transform="translate(0,0)"/>
<path d="" fill="#AA0000" transform="translate(0,0)"/>
<path d="" fill="#AA0000" transform="translate(0,0)"/>
<path d="" fill="#AA0000" transform="translate(0,0)"/>
<path d="" fill="#AA0000" transform="translate(0,0)"/>
<path d="" fill="#AA0000" transform="translate(0,0)"/>
<path d="" fill="#AA0000" transform="translate(0,0)"/>
<path d="" fill="#AA0000" transform="translate(0,0)"/>
<path d="" fill="#AA0000" transform="translate(0,0)"/>
<path d="" fill="#AA0000" transform="translate(0,0)"/>
<path d="" fill="#AA0000" transform="translate(0,0)"/>
<path d="" fill="#AA0000" transform="translate(0,0)"/>
<path d="" fill="#AA0000" transform="translate(0,0)"/>
<path d="" fill="#AA0000" transform="translate(0,0)"/>
<path d="" fill="#AA0000" transform="translate(0,0)"/>
<path d="" fill="#AA0000" transform="translate(0,0)"/>
<path d="" fill="#AA0000" transform="translate(0,0)"/>
<path d="" fill="#AA0000" transform="translate(0,0)"/>
<path d="" fill="#AA0000" transform="translate(0,0)"/>
<path d="" fill="#AA0000" transform="translate(0,0)"/>
<path d="" fill="#AA0000" transform="translate(0,0)"/>
<path d="" fill="#AA0000" transform="translate(0,0)"/>
<path d="" fill="#AA0000" transform="translate(0,0)"/>
<path d="" fill="#AA0000" transform="translate(0,0)"/>
<path d="" fill="#AA0000" transform="translate(0,0)"/>
<path d="" fill="#AA0000" transform="translate(0,0)"/>
<path d="" fill="#AA0000" transform="translate(0,0)"/>
<path d="" fill="#AA0000" transform="translate(0,0)"/>
<path d="" fill="#AA0000" transform="translate(0,0)"/>
<path d="" fill="#AA0000" transform="translate(0,0)"/>
<path d="" fill="#AA0000" transform="translate(0,0)"/>
<path d="" fill="#AA0000" transform="translate(0,0)"/>
<path d="" fill="#AA0000" transform="translate(0,0)"/>
<path d="" fill="#AA0000" transform="translate(0,0)"/>
<path d="" fill="#AA0000" transform="translate(0,0)"/>
<path d="" fill="#AA0000" transform="translate(0,0)"/>
<path d="" fill="#AA0000" transform="translate(0,0)"/>
<path d="" fill="#AA0000" transform="translate(0,0)"/>
<path d="" fill="#AA0000" transform="translate(0,0)"/>
<path d="" fill="#AA0000" transform="translate(0,0)"/>
<path d="" fill="#AA0000" transform="translate(0,0)"/>
<path d="" fill="#AA0000" transform="translate(0,0)"/>
<path d="" fill="#AA0000" transform="translate(0,0)"/>
<path d="" fill="#AA0000" transform="translate(0,0)"/>
<path d="" fill="#AA0000" transform="translate(0,0)"/>
<path d="" fill="#AA0000" transform="translate(0,0)"/>
<path d="" fill="#AA0000" transform="translate(0,0)"/>
<path d="" fill="#AA0000" transform="translate(0,0)"/>
<path d="" fill="#AA0000" transform="translate(0,0)"/>
<path d="" fill="#AA0000" transform="translate(0,0)"/>
<path d="" fill="#AA0000" transform="translate(0,0)"/>
<path d="" fill="#AA0000" transform="translate(0,0)"/>
<path d="" fill="#AA0000" transform="translate(0,0)"/>
<path d="" fill="#AA0000" transform="translate(0,0)"/>
<path d="" fill="#AA0000" transform="translate(0,0)"/>
<path d="" fill="#AA0000" transform="translate(0,0)"/>
<path d="" fill="#AA0000" transform="translate(0,0)"/>
<path d="" fill="#AA0000" transform="translate(0,0)"/>
<path d="" fill="#AA0000" transform="translate(0,0)"/>
<path d="" fill="#AA0000" transform="translate(0,0)"/>
<path d="" fill="#AA0000" transform="translate(0,0)"/>
<path d="" fill="#AA0000" transform="translate(0,0)"/>
<path d="" fill="#AA0000" transform="translate(0,0)"/>
<path d="" fill="#AA0000" transform="translate(0,0)"/>
<path d="" fill="#AA0000" transform="translate(0,0)"/>
<path d="" fill="#AA0000" transform="translate(0,0)"/>
<path d="" fill="#AA0000" transform="translate(0,0)"/>
<path d="" fill="#AA0000" transform="translate(0,0)"/>
<path d="" fill="#AA0000" transform="translate(0,0)"/>
<path d="" fill="#AA0000" transform="translate(0,0)"/>
<path d="" fill="#AA0000" transform="translate(0,0)"/>
<path d="" fill="#AA0000" transform="translate(0,0)"/>
<path d="" fill="#AA0000" transform="translate(0,0)"/>
<path d="" fill="#AA0000" transform="translate(0,0)"/>
<path d="" fill="#AA0000" transform="translate(0,0)"/>
<path d="" fill="#AA0000" transform="translate(0,0)"/>
<path d="" fill="#AA0000" transform="translate(0,0)"/>
<path d="" fill="#AA0000" transform="translate(0,0)"/>
<path d="" fill="#AA0000" transform="translate(0,0)"/>
<path d="" fill="#AA0000" transform="translate(0,0)"/>
<path d="" fill="#AA0000" transform="translate(0,0)"/>
<path d="" fill="#AA0000" transform="translate(0,0)"/>
<path d="" fill="#AA0000" transform="translate(0,0)"/>
<path d="" fill="#AA0000" transform="translate(0,0)"/>
<path d="" fill="#AA0000" transform="translate(0,0)"/>
<path d="" fill="#AA0000" transform="translate(0,0)"/>
<path d="" fill="#AA0000" transform="translate(0,0)"/>
<path d="" fill="#AA0000" transform="translate(0,0)"/>
<path d="" fill="#AA0000" transform="translate(0,0)"/>
<path d="" fill="#AA0000" transform="translate(0,0)"/>
<path d="" fill="#AA0000" transform="translate(0,0)"/>
<path d="" fill="#AA0000" transform="translate(0,0)"/>
<path d="" fill="#AA0000" transform="translate(0,0)"/>
<path d="" fill="#AA0000" transform="translate(0,0)"/>
<path d="" fill="#AA0000" transform="translate(0,0)"/>
<path d="" fill="#AA0000" transform="translate(0,0)"/>
<path d="" fill="#AA0000" transform="translate(0,0)"/>
<path d="" fill="#AA0000" transform="translate(0,0)"/>
<path d="" fill="#AA0000" transform="translate(0,0)"/>
<path d="" fill="#AA0000" transform="translate(0,0)"/>
<path d="" fill="#AA0000" transform="translate(0,0)"/>
<path d="" fill="#AA0000" transform="translate(0,0)"/>
<path d="" fill="#AA0000" transform="translate(0,0)"/>
<path d="" fill="#AA0000" transform="translate(0,0)"/>
<path d="" fill="#AA0000" transform="translate(0,0)"/>
<path d="" fill="#AA0000" transform="translate(0,0)"/>
<path d="" fill="#AA0000" transform="translate(0,0)"/>
<path d="" fill="#AA0000" transform="translate(0,0)"/>
<path d="" fill="#AA0000" transform="translate(0,0)"/>
<path d="" fill="#AA0000" transform="translate(0,0)"/>
<path d="" fill="#AA0000" transform="translate(0,0)"/>
<path d="" fill="#AA0000" transform="translate(0,0)"/>
<path d="" fill="#AA0000" transform="translate(0,0)"/>
<path d="" fill="#AA0000" transform="translate(0,0)"/>
<path d="" fill="#AA0000" transform="translate(0,0)"/>
<path d="" fill="#AA0000" transform="translate(0,0)"/>
<path d="" fill="#AA0000" transform="translate(0,0)"/>
<path d="" fill="#AA0000" transform="translate(0,0)"/>
<path d="" fill="#AA0000" transform="translate(0,0)"/>
<path d="" fill="#AA0000" transform="translate(0,0)"/>
<path d="" fill="#AA0000" transform="translate(0,0)"/>
<path d="" fill="#AA0000" transform="translate(0,0)"/>
<path d="" fill="#AA0000" transform="translate(0,0)"/>
<path d="" fill="#AA0000" transform="translate(0,0)"/>
<path d="" fill="#AA0000" transform="translate(0,0)"/>
<path d="" fill="#AA0000" transform="translate(0,0)"/>
<path d="" fill="#AA0000" transform="translate(0,0)"/>
<path d="" fill="#AA0000" transform="translate(0,0)"/>
<path d="" fill="#AA0000" transform="translate(0,0)"/>
<path d="" fill="#AA0000" transform="translate(0,0)"/>
<path d="" fill="#AA0000" transform="translate(0,0)"/>
<path d="" fill="#AA0000" transform="translate(0,0)"/>
<path d="" fill="#AA0000" transform="translate(0,0)"/>
<path d="" fill="#AA0000" transform="translate(0,0)"/>
<path d="" fill="#AA0000" transform="translate(0,0)"/>
<path d="" fill="#AA0000" transform="translate(0,0)"/>
<path d="" fill="#AA0000" transform="translate(0,0)"/>
<path d="" fill="#AA0000" transform="translate(0,0)"/>
<path d="" fill="#AA0000" transform="translate(0,0)"/>
<path d="" fill="#AA0000" transform="translate(0,0)"/>
<path d="" fill="#AA0000" transform="translate(0,0)"/>
<path d="" fill="#AA0000" transform="translate(0,0)"/>
<path d="" fill="#AA0000" transform="translate(0,0)"/>
<path d="" fill="#AA0000" transform="translate(0,0)"/>
<path d="" fill="#AA0000" transform="translate(0,0)"/>
<path d="" fill="#AA0000" transform="translate(0,0)"/>
<path d="" fill="#AA0000" transform="translate(0,0)"/>
<path d="" fill="#AA0000" transform="translate(0,0)"/>
<path d="" fill="#AA0000" transform="translate(0,0)"/>
<path d="" fill="#AA0000" transform="translate(0,0)"/>
<path d="" fill="#AA0000" transform="translate(0,0)"/>
<path d="" fill="#AA0000" transform="translate(0,0)"/>
<path d="" fill="#AA0000" transform="translate(0,0)"/>
<path d="" fill="#AA0000" transform="translate(0,0)"/>
<path d="" fill="#AA0000" transform="translate(0,0)"/>
<path d="" fill="#AA0000" transform="translate(0,0)"/>
<path d="" fill="#AA0000" transform="translate(0,0)"/>
<path d="" fill="#AA0000" transform="translate(0,0)"/>
<path d="" fill="#AA0000" transform="translate(0,0)"/>
<path d="" fill="#AA0000" transform="translate(0,0)"/>
<path d="" fill="#AA0000" transform="translate(0,0)"/>
<path d="" fill="#AA0000" transform="translate(0,0)"/>
<path d="" fill="#AA0000" transform="translate(0,0)"/>
<path d="" fill="#AA0000" transform="translate(0,0)"/>
<path d="" fill="#AA0000" transform="translate(0,0)"/>
<path d="" fill="#AA0000" transform="translate(0,0)"/>
<path d="" fill="#AA0000" transform="translate(0,0)"/>
<path d="" fill="#AA0000" transform="translate(0,0)"/>
<path d="" fill="#AA0000" transform="translate(0,0)"/>
<path d="" fill="#AA0000" transform="translate(0,0)"/>
<path d="" fill="#AA0000" transform="translate(0,0)"/>
<path d="" fill="#AA0000" transform="translate(0,0)"/>
<path d="" fill="#AA0000" transform="translate(0,0)"/>
<path d="" fill="#AA0000" transform="translate(0,0)"/>
<path d="" fill="#AA0000" transform="translate(0,0)"/>
<path d="" fill="#AA0000" transform="translate(0,0)"/>
<path d="" fill="#AA0000" transform="translate(0,0)"/>
<path d="" fill="#AA0000" transform="translate(0,0)"/>
<path d="" fill="#AA0000" transform="translate(0,0)"/>
<path d="" fill="#AA0000" transform="translate(0,0)"/>
<path d="" fill="#AA0000" transform="translate(0,0)"/>
<path d="" fill="#AA0000" transform="translate(0,0)"/>
<path d="" fill="#AA0000" transform="translate(0,0)"/>
<path d="" fill="#AA0000" transform="translate(0,0)"/>
<path d="" fill="#AA0000" transform="translate(0,0)"/>
<path d="" fill="#AA0000" transform="translate(0,0)"/>
<path d="" fill="#AA0000" transform="translate(0,0)"/>
<path d="" fill="#AA0000" transform="translate(0,0)"/>
<path d="" fill="#AA0000" transform="translate(0,0)"/>
<path d="" fill="#AA0000" transform="translate(0,0)"/>
<path d="" fill="#AA0000" transform="translate(0,0)"/>
<path d="" fill="#AA0000" transform="translate(0,0)"/>
<path d="" fill="#AA0000" transform="translate(0,0)"/>
<path d="" fill="#AA0000" transform="translate(0,0)"/>
<path d="" fill="#AA0000" transform="translate(0,0)"/>
<path d="" fill="#AA0000" transform="translate(0,0)"/>
<path d="" fill="#AA0000" transform="translate(0,0)"/>
<path d="" fill="#AA0000" transform="translate(0,0)"/>
<path d="" fill="#AA0000" transform="translate(0,0)"/>
<path d="" fill="#AA0000" transform="translate(0,0)"/>
<path d="" fill="#AA0000" transform="translate(0,0)"/>
<path d="" fill="#AA0000" transform="translate(0,0)"/>
<path d="" fill="#AA0000" transform="translate(0,0)"/>
<path d="" fill="#AA0000" transform="translate(0,0)"/>
<path d="" fill="#AA0000" transform="translate(0,0)"/>
<path d="" fill="#AA0000" transform="translate(0,0)"/>
<path d="" fill="#AA0000" transform="translate(0,0)"/>
<path d="" fill="#AA0000" transform="translate(0,0)"/>
<path d="" fill="#AA0000" transform="translate(0,0)"/>
<path d="" fill="#AA0000" transform="translate(0,0)"/>
<path d="" fill="#AA0000" transform="translate(0,0)"/>
<path d="" fill="#AA0000" transform="translate(0,0)"/>
<path d="" fill="#AA0000" transform="translate(0,0)"/>
<path d="" fill="#AA0000" transform="translate(0,0)"/>
<path d="" fill="#AA0000" transform="translate(0,0)"/>
<path d="" fill="#AA0000" transform="translate(0,0)"/>
<path d="" fill="#AA0000" transform="translate(0,0)"/>
<path d="" fill="#AA0000" transform="translate(0,0)"/>
<path d="" fill="#AA0000" transform="translate(0,0)"/>
<path d="" fill="#AA0000" transform="translate(0,0)"/>
<path d="" fill="#AA0000" transform="translate(0,0)"/>
<path d="" fill="#AA0000" transform="translate(0,0)"/>
<path d="" fill="#AA0000" transform="translate(0,0)"/>
<path d="" fill="#AA0000" transform="translate(0,0)"/>
<path d="" fill="#AA0000" transform="translate(0,0)"/>
<path d="" fill="#AA0000" transform="translate(0,0)"/>
<path d="" fill="#AA0000" transform="translate(0,0)"/>
<path d="" fill="#AA0000" transform="translate(0,0)"/>
<path d="" fill="#AA0000" transform="translate(0,0)"/>
<path d="" fill="#AA0000" transform="translate(0,0)"/>
<path d="" fill="#AA0000" transform="translate(0,0)"/>
<path d="" fill="#AA0000" transform="translate(0,0)"/>
<path d="" fill="#AA0000" transform="translate(0,0)"/>
<path d="" fill="#AA0000" transform="translate(0,0)"/>
<path d="" fill="#AA0000" transform="translate(0,0)"/>
<path d="" fill="#AA0000" transform="translate(0,0)"/>
<path d="" fill="#AA0000" transform="translate(0,0)"/>
<path d="" fill="#AA0000" transform="translate(0,0)"/>
<path d="" fill="#AA0000" transform="translate(0,0)"/>
<path d="" fill="#AA0000" transform="translate(0,0)"/>
<path d="" fill="#AA0000" transform="translate(0,0)"/>
<path d="" fill="#AA0000" transform="translate(0,0)"/>
<path d="" fill="#AA0000" transform="translate(0,0)"/>
<path d="" fill="#AA0000" transform="translate(0,0)"/>
<path d="" fill="#AA0000" transform="translate(0,0)"/>
<path d="" fill="#AA0000" transform="translate(0,0)"/>
<path d="" fill="#AA0000" transform="translate(0,0)"/>
<path d="" fill="#AA0000" transform="translate(0,0)"/>
<path d="" fill="#AA0000" transform="translate(0,0)"/>
<path d="" fill="#AA0000" transform="translate(0,0)"/>
<path d="" fill="#AA0000" transform="translate(0,0)"/>
<path d="" fill="#AA0000" transform="translate(0,0)"/>
<path d="" fill="#AA0000" transform="translate(0,0)"/>
<path d="" fill="#AA0000" transform="translate(0,0)"/>
<path d="" fill="#AA0000" transform="translate(0,0)"/>
<path d="" fill="#AA0000" transform="translate(0,0)"/>
<path d="" fill="#AA0000" transform="translate(0,0)"/>
<path d="" fill="#AA0000" transform="translate(0,0)"/>
<path d="" fill="#AA0000" transform="translate(0,0)"/>
<path d="" fill="#AA0000" transform="translate(0,0)"/>
<path d="" fill="#AA0000" transform="translate(0,0)"/>
<path d="" fill="#AA0000" transform="translate(0,0)"/>
<path d="" fill="#AA0000" transform="translate(0,0)"/>
<path d="" fill="#AA0000" transform="translate(0,0)"/>
<path d="" fill="#AA0000" transform="translate(0,0)"/>
<path d="" fill="#AA0000" transform="translate(0,0)"/>
<path d="" fill="#AA0000" transform="translate(0,0)"/>
<path d="" fill="#AA0000" transform="translate(0,0)"/>
<path d="" fill="#AA0000" transform="translate(0,0)"/>
<path d="" fill="#AA0000" transform="translate(0,0)"/>
<path d="" fill="#AA0000" transform="translate(0,0)"/>
<path d="" fill="#AA0000" transform="translate(0,0)"/>
<path d="" fill="#AA0000" transform="translate(0,0)"/>
<path d="" fill="#AA0000" transform="translate(0,0)"/>
<path d="" fill="#AA0000" transform="translate(0,0)"/>
<path d="" fill="#AA0000" transform="translate(0,0)"/>
<path d="" fill="#AA0000" transform="translate(0,0)"/>
<path d="" fill="#AA0000" transform="translate(0,0)"/>
<path d="" fill="#AA0000" transform="translate(0,0)"/>
<path d="" fill="#AA0000" transform="translate(0,0)"/>
<path d="" fill="#AA0000" transform="translate(0,0)"/>
<path d="" fill="#AA0000" transform="translate(0,0)"/>
<path d="" fill="#AA0000" transform="translate(0,0)"/>
<path d="" fill="#AA0000" transform="translate(0,0)"/>
<path d="" fill="#AA0000" transform="translate(0,0)"/>
<path d="" fill="#AA0000" transform="translate(0,0)"/>
<path d="" fill="#AA0000" transform="translate(0,0)"/>
<path d="" fill="#AA0000" transform="translate(0,0)"/>
<path d="" fill="#AA0000" transform="translate(0,0)"/>
<path d="" fill="#AA0000" transform="translate(0,0)"/>
<path d="" fill="#AA0000" transform="translate(0,0)"/>
<path d="" fill="#AA0000" transform="translate(0,0)"/>
<path d="" fill="#AA0000" transform="translate(0,0)"/>
<path d="" fill="#AA0000" transform="translate(0,0)"/>
<path d="" fill="#AA0000" transform="translate(0,0)"/>
<path d="" fill="#AA0000" transform="translate(0,0)"/>
<path d="" fill="#AA0000" transform="translate(0,0)"/>
<path d="" fill="#AA0000" transform="translate(0,0)"/>
<path d="" fill="#AA0000" transform="translate(0,0)"/>
<path d="" fill="#AA0000" transform="translate(0,0)"/>
<path d="" fill="#AA0000" transform="translate(0,0)"/>
<path d="" fill="#AA0000" transform="translate(0,0)"/>
<path d="" fill="#AA0000" transform="translate(0,0)"/>
<path d="" fill="#AA0000" transform="translate(0,0)"/>
<path d="" fill="#AA0000" transform="translate(0,0)"/>
<path d="" fill="#AA0000" transform="translate(0,0)"/>
<path d="" fill="#AA0000" transform="translate(0,0)"/>
<path d="" fill="#AA0000" transform="translate(0,0)"/>
<path d="" fill="#AA0000" transform="translate(0,0)"/>
<path d="" fill="#AA0000" transform="translate(0,0)"/>
<path d="" fill="#AA0000" transform="translate(0,0)"/>
<path d="" fill="#AA0000" transform="translate(0,0)"/>
<path d="" fill="#AA0000" transform="translate(0,0)"/>
<path d="" fill="#AA0000" transform="translate(0,0)"/>
<path d="" fill="#AA0000" transform="translate(0,0)"/>
<path d="" fill="#AA0000" transform="translate(0,0)"/>
<path d="" fill="#AA0000" transform="translate(0,0)"/>
<path d="" fill="#AA0000" transform="translate(0,0)"/>
<path d="" fill="#AA0000" transform="translate(0,0)"/>
<path d="" fill="#AA0000" transform="translate(0,0)"/>
<path d="" fill="#AA0000" transform="translate(0,0)"/>
<path d="" fill="#AA0000" transform="translate(0,0)"/>
<path d="" fill="#AA0000" transform="translate(0,0)"/>
<path d="" fill="#AA0000" transform="translate(0,0)"/>
<path d="" fill="#AA0000" transform="translate(0,0)"/>
<path d="" fill="#AA0000" transform="translate(0,0)"/>
<path d="" fill="#AA0000" transform="translate(0,0)"/>
<path d="" fill="#AA0000" transform="translate(0,0)"/>
<path d="" fill="#AA0000" transform="translate(0,0)"/>
<path d="" fill="#AA0000" transform="translate(0,0)"/>
<path d="" fill="#AA0000" transform="translate(0,0)"/>
<path d="" fill="#AA0000" transform="translate(0,0)"/>
<path d="" fill="#AA0000" transform="translate(0,0)"/>
<path d="" fill="#AA0000" transform="translate(0,0)"/>
<path d="" fill="#AA0000" transform="translate(0,0)"/>
<path d="" fill="#AA0000" transform="translate(0,0)"/>
<path d="" fill="#AA0000" transform="translate(0,0)"/>
<path d="" fill="#AA0000" transform="translate(0,0)"/>
<path d="" fill="#AA0000" transform="translate(0,0)"/>
<path d="" fill="#AA0000" transform="translate(0,0)"/>
<path d="" fill="#AA0000" transform="translate(0,0)"/>
<path d="" fill="#AA0000" transform="translate(0,0)"/>
<path d="" fill="#AA0000" transform="translate(0,0)"/>
<path d="" fill="#AA0000" transform="translate(0,0)"/>
<path d="" fill="#AA0000" transform="translate(0,0)"/>
<path d="" fill="#AA0000" transform="translate(0,0)"/>
<path d="" fill="#AA0000" transform="translate(0,0)"/>
<path d="" fill="#AA0000" transform="translate(0,0)"/>
</svg>
